# xmcd
#
# Track frame offsets: 
#        150
#        15569
#        34128
#        54841
#        74588
#        92035
#        109502
#        133432
#        147944
#        168036
#        185996
#        202539
#        215581
#        232577
#
# Disc length: 3312 seconds
#
# Revision: 2
# Processed by: cddbd v1.4PL0 Copyright (c) Steve Scherf et al.
# Submitted via: ExactAudioCopy v0.90b3
#
DISCID=bd0cee0e
DTITLE=Various Artist - Swingin' The Blues  Vol. 1
DYEAR=1900
DGENRE=Blues
TTITLE0=Lynn August - Love At First Sight (131 BPM)
TTITLE1=Coco Montoya - Tumbleweed (127 BPM)
TTITLE2=Grady Grains - Have Fun, Baby (124 BPM)
TTITLE3=Hoopsnakes - Walk Real Slow (99 BPM)
TTITLE4=Microwave Dave and the Nukes - Road Runner (123 BPM)
TTITLE5=Kelly Hunt - If I Don't Dance (118 BPM)
TTITLE6=Junior Watson - Mojo Boogie (125 BPM)
TTITLE7=Francine Reed - You Bug Me (125 BPM)
TTITLE8=Michelle Wilson - You Got What It Takes (134 BPM)
TTITLE9=Greg Fingers Taylor - Scratch My Back, Tip On In (133 BPM)
TTITLE10=Lynn August - Undivided Love (127 BPM)
TTITLE11=Toni Lynn - Knock Once (127 BPM)
TTITLE12=Hoopsnakes - Doctor Doctor (127 BPM)
TTITLE13=Dick's Hat Band - Good Time To Hit The Road (121 BPM)
EXTD=
EXTT0=
EXTT1=
EXTT2=
EXTT3=
EXTT4=
EXTT5=
EXTT6=
EXTT7=
EXTT8=
EXTT9=
EXTT10=
EXTT11=
EXTT12=
EXTT13=
PLAYORDER=
